<?xml version="1.0" encoding="utf-8"?>
<!-- Generator: Adobe Illustrator 15.0.0, SVG Export Plug-In . SVG Version: 6.00 Build 0)  -->
<!DOCTYPE svg PUBLIC "-//W3C//DTD SVG 1.1//EN" "http://www.w3.org/Graphics/SVG/1.1/DTD/svg11.dtd">
<svg version="1.1" id="Layer_1" xmlns="http://www.w3.org/2000/svg" xmlns:xlink="http://www.w3.org/1999/xlink" x="0px" y="0px"
	 width="300px" height="79px" viewBox="0 0 300 79" enable-background="new 0 0 300 79" xml:space="preserve">
<g>
	<path fill="#48484A" d="M126.401,68.916c-3.155,0-6.152-0.344-8.905-1.021c-2.842-0.696-5.368-1.855-7.498-3.443
		c-2.171-1.613-3.899-3.713-5.138-6.242c-1.232-2.521-1.833-5.604-1.782-9.167l0.021-1.528h6.345l-0.084,1.63
		c-0.132,2.563,0.229,4.728,1.071,6.431c0.851,1.72,2.04,3.148,3.541,4.248c1.538,1.127,3.381,1.953,5.483,2.453
		c2.189,0.525,4.526,0.789,6.946,0.789c1.425,0,2.98-0.182,4.622-0.541c1.575-0.344,3.044-0.936,4.36-1.756
		c1.272-0.792,2.355-1.854,3.213-3.155c0.813-1.229,1.227-2.839,1.227-4.788c0-1.822-0.41-3.303-1.219-4.395
		c-0.859-1.174-2.024-2.137-3.462-2.864c-1.558-0.788-3.342-1.429-5.306-1.901c-2.082-0.502-4.235-0.973-6.41-1.396
		c-2.193-0.439-4.394-0.957-6.547-1.544c-2.254-0.615-4.285-1.463-6.037-2.52c-1.833-1.105-3.34-2.56-4.479-4.321
		c-1.171-1.814-1.765-4.129-1.765-6.881c0-2.727,0.594-5.121,1.765-7.117c1.157-1.961,2.685-3.568,4.544-4.779
		c1.803-1.175,3.85-2.049,6.083-2.595c2.186-0.534,4.379-0.803,6.516-0.803c2.817,0,5.489,0.32,7.947,0.952
		c2.515,0.652,4.76,1.682,6.673,3.068c1.949,1.416,3.529,3.263,4.696,5.493c1.16,2.214,1.828,4.888,1.979,7.946l0.083,1.629h-6.297
		l-0.063-1.483c-0.09-1.985-0.505-3.716-1.242-5.146c-0.736-1.427-1.745-2.641-3-3.603c-1.279-0.981-2.84-1.731-4.643-2.23
		c-1.859-0.517-3.923-0.777-6.134-0.777c-1.331,0-2.794,0.161-4.355,0.476c-1.487,0.303-2.882,0.836-4.145,1.586
		c-1.211,0.717-2.218,1.695-2.997,2.905c-0.748,1.163-1.127,2.667-1.127,4.478c0,1.736,0.388,3.08,1.191,4.112
		c0.864,1.108,2.019,2.016,3.431,2.703c1.53,0.742,3.315,1.346,5.31,1.8c2.056,0.468,4.21,0.928,6.397,1.367
		c2.244,0.438,4.466,0.972,6.598,1.585c2.231,0.642,4.261,1.527,6.036,2.634c1.862,1.161,3.385,2.695,4.519,4.559
		c1.157,1.9,1.745,4.277,1.745,7.062c0,2.988-0.663,5.553-1.973,7.631c-1.267,2.003-2.893,3.67-4.836,4.951
		c-1.903,1.25-4.041,2.162-6.355,2.707C130.691,68.646,128.49,68.916,126.401,68.916z"/>
	<path fill="#48484A" d="M202.89,67.686h-6.282V25.872l-17.233,41.814h-5.253l-17.452-41.884v41.884h-6.286V12.938h7.138
		l19.216,45.8l19.01-45.8h7.143V67.686z"/>
	<path fill="#48484A" d="M251.94,67.686h-6.742l-10.837-28.043l-6.788-17.927l-18.09,45.971h-6.746l22.004-54.748h5.576
		L251.94,67.686z"/>
	<path fill="#48484A" d="M104.955,67.686h-6.74l-10.84-28.043l-6.789-17.926l-18.086,45.97H55.75l22.005-54.748h5.574
		L104.955,67.686z"/>
	<path fill="#48484A" d="M295.209,67.686h-7.688l-0.444-0.791c-0.79-1.41-1.233-3.065-1.315-4.92
		c-0.074-1.631-0.111-3.347-0.111-5.099c0-1.694-0.071-3.39-0.212-5.039c-0.125-1.479-0.521-2.81-1.178-3.958
		c-0.62-1.083-1.597-1.946-2.989-2.634c-1.443-0.708-3.585-1.067-6.365-1.067h-12.395v-5.85h12.395c1.729,0,3.352-0.212,4.819-0.628
		c1.399-0.398,2.606-1.014,3.591-1.834c0.981-0.816,1.744-1.845,2.327-3.138c0.58-1.284,0.873-2.87,0.873-4.713
		c0-1.664-0.306-3.089-0.904-4.234c-0.607-1.153-1.424-2.104-2.427-2.826c-1.036-0.747-2.268-1.295-3.655-1.634
		c-1.468-0.354-3.021-0.533-4.624-0.533h-16.826v48.897h-6.284V12.938h23.11c2.372,0,4.634,0.244,6.715,0.726
		c2.164,0.503,4.092,1.339,5.74,2.48c1.702,1.182,3.053,2.751,4.01,4.667c0.951,1.899,1.432,4.25,1.432,6.987
		c0,3.825-1.104,7.113-3.279,9.771c-1.165,1.424-2.577,2.566-4.221,3.419c0.5,0.243,0.957,0.509,1.377,0.804
		c1.586,1.113,2.792,2.505,3.581,4.138c0.745,1.552,1.232,3.277,1.445,5.13c0.201,1.737,0.3,3.5,0.3,5.238v2.968
		c0,0.911,0.045,1.763,0.136,2.536c0.086,0.746,0.227,1.447,0.416,2.081c0.157,0.529,0.369,0.962,0.627,1.282L295.209,67.686z"/>
	<path fill="#48484A" d="M30.879,68.918c-14.925,0-27.063-12.832-27.063-28.606c0-15.773,12.139-28.604,27.063-28.604
		c7.85,0,15.307,3.613,20.459,9.912l0.885,1.081l-4.505,4.286l-1.129-1.423c-3.958-4.997-9.683-7.861-15.709-7.861
		c-11.453,0-20.765,10.143-20.765,22.61c0,12.469,9.312,22.612,20.765,22.612c11.195,0,20.504-9.916,20.752-22.104l0.032-1.52h6.297
		l-0.028,1.58C57.646,56.34,45.508,68.918,30.879,68.918z"/>
	<path fill="#C60651" d="M57.532,45.117H30.637v-5.85l27.324,0.005l-0.03,1.58c-0.02,0.953-0.092,1.908-0.221,2.914L57.532,45.117z"
		/>
	<path fill="#C60651" d="M82.845,45.117H60.67l0.177-1.711c0.089-0.863,0.142-1.725,0.161-2.56l0.027-1.521l-0.019-0.057h19.568
		L82.845,45.117z"/>
</g>
</svg>
